<?xml version="1.0" standalone="no"?>
<!DOCTYPE svg PUBLIC "-//W3C//DTD SVG 20010904//EN"
 "http://www.w3.org/TR/2001/REC-SVG-20010904/DTD/svg10.dtd">
<svg version="1.0" xmlns="http://www.w3.org/2000/svg"
 width="4000.000000pt" height="2000.000000pt" viewBox="0 0 4000.000000 2000.000000"
 preserveAspectRatio="xMidYMid meet">
<metadata>
Created by potrace 1.16, written by Peter Selinger 2001-2019
</metadata>
<g transform="translate(0.000000,2000.000000) scale(0.100000,-0.100000)"
fill="#000000" stroke="none">
<path d="M0 19640 c0 -313 2 -360 15 -360 13 0 15 -24 15 -152 0 -84 3 -197 7
-250 l6 -98 99 0 98 0 0 250 0 250 155 0 155 0 0 -250 0 -250 106 0 106 0 -7
250 -7 250 156 0 156 0 0 -250 0 -250 105 0 105 0 0 250 0 250 155 0 155 0 0
-250 0 -250 98 0 99 0 6 167 c4 91 7 204 7 250 l0 83 156 0 155 0 -4 -275 -3
-275 178 0 178 0 0 -25 0 -25 -180 0 -180 0 0 -142 c0 -79 -5 -381 -10 -672
-6 -291 -8 -531 -6 -533 1 -2 17 24 35 57 l32 60 153 0 153 0 6 -272 c4 -150
10 -1145 14 -2210 6 -1834 7 -1938 24 -1938 15 0 18 -14 23 -102 3 -57 8 -562
11 -1123 2 -561 9 -1598 14 -2305 5 -707 11 -1582 12 -1945 l3 -660 -32 -3
c-26 -3 -32 -8 -32 -28 0 -23 3 -24 61 -24 l60 0 -5 238 c-6 262 -14 1755 -21
4077 -3 836 -7 1631 -11 1768 l-6 247 75 0 75 0 18 80 17 80 127 0 128 0 18
68 c9 37 21 72 26 79 6 7 6 815 2 1990 -4 1088 -4 2049 1 2136 l7 157 74 0 74
0 0 -262 c0 -244 7 -317 24 -273 3 9 6 112 6 228 0 117 3 290 7 385 l6 172
181 1 c100 1 170 4 158 6 l-24 5 7 116 c4 64 11 136 16 159 5 22 11 110 14
195 20 593 28 786 35 804 6 15 23 23 73 32 35 7 69 12 74 12 6 0 12 -142 16
-372 4 -205 10 -435 13 -510 l7 -138 54 0 53 0 0 189 c0 300 29 715 62 873 15
71 10 77 -66 85 l-56 6 0 38 c0 35 2 38 33 42 17 2 -66 5 -187 5 l-219 2 6 83
c4 45 10 144 13 220 l7 137 -242 0 -243 0 6 -177 c4 -98 9 -197 12 -220 l5
-43 -48 -2 c-43 -1 -44 -2 -10 -5 l37 -4 0 -119 0 -119 33 -3 32 -3 12 -105
c21 -191 33 -432 33 -657 0 -216 -1 -223 -20 -223 -24 0 -24 4 -6 -165 8 -71
12 -132 9 -135 -2 -3 -44 -7 -92 -8 l-88 -4 -11 139 c-17 201 -21 183 38 176
l50 -6 0 209 c0 225 -11 455 -35 734 -14 165 -19 207 -31 272 l-6 28 -87 -7
c-60 -4 -90 -2 -95 5 -4 6 -16 108 -28 227 l-22 215 -1363 0 -1363 0 0 -360z
m2363 -380 c-5 -36 -4 -40 17 -40 18 0 21 -4 16 -22 -3 -13 -6 -29 -6 -35 0
-7 -9 -13 -20 -13 -14 0 -21 -9 -26 -35 -6 -34 -8 -35 -50 -35 l-44 0 0 64 c0
35 3 84 6 110 l7 46 52 0 53 0 -5 -40z"/>
<path d="M4326 19963 c-3 -21 -12 -112 -21 -203 -23 -235 -9 -210 -119 -210
l-94 0 -11 -82 c-10 -85 -13 -117 -31 -323 -16 -183 -30 -619 -23 -722 l6 -93
43 0 c24 0 45 -3 47 -7 2 -5 -2 -71 -9 -148 -7 -77 -13 -146 -13 -152 -1 -9
-19 -13 -58 -13 l-56 0 6 -112 c4 -62 7 -939 7 -1949 l0 -1836 38 6 c66 11 64
-7 121 1116 29 550 56 1050 61 1110 5 61 28 461 50 890 22 429 43 804 46 833
l5 52 85 0 84 0 0 305 0 305 235 0 235 0 0 -30 0 -30 -205 0 -205 0 0 -267 c0
-152 4 -263 9 -257 4 5 32 42 60 82 l53 72 143 0 143 0 6 -212 c6 -219 18
-882 41 -2163 7 -401 13 -731 14 -732 0 -2 39 -3 86 -3 l85 0 37 75 c21 41 42
75 48 75 7 0 3 433 -11 1357 -12 747 -25 1634 -28 1971 l-7 612 155 0 156 0 0
-250 0 -250 107 0 106 0 -6 250 -6 250 154 0 155 0 0 -77 c0 -43 3 -156 7
-250 l6 -173 99 0 98 0 0 250 0 250 155 0 155 0 0 -250 0 -250 100 0 100 0 0
78 c0 42 3 155 7 250 l6 172 154 0 153 0 0 -250 0 -250 95 0 95 0 1 43 c1 23
5 137 8 252 l6 210 114 5 114 5 50 143 c37 104 55 142 67 142 23 0 203 158
213 186 5 15 17 24 29 24 34 0 238 175 238 204 0 3 -852 6 -1894 6 l-1894 0
-6 -37z m744 -773 l0 -110 -44 0 c-43 0 -45 1 -48 33 -2 24 -8 33 -25 35 -15
2 -23 10 -23 22 0 10 -3 25 -6 34 -4 12 0 16 15 16 18 0 21 6 21 40 l0 40 55
0 55 0 0 -110z"/>
<path d="M9876 19818 c-10 -101 -20 -202 -23 -226 l-6 -44 -92 7 c-105 8 -98
15 -109 -95 -39 -376 -56 -654 -56 -937 l0 -193 51 0 52 0 -7 -92 c-4 -51 -9
-123 -13 -160 l-6 -68 -51 0 -51 0 -1 -2083 c-1 -2603 -16 -4103 -74 -7867 -5
-355 -12 -698 -15 -763 l-5 -118 64 -29 c105 -48 250 -73 386 -67 138 6 239
31 353 87 94 45 94 45 117 25 15 -14 19 -11 42 32 242 451 532 2393 758 5073
63 756 115 1478 155 2160 9 146 17 288 20 315 10 121 16 228 20 330 2 61 8
196 14 300 19 348 41 956 46 1315 3 195 8 447 11 559 l6 204 59 111 c78 150
157 334 225 524 31 86 57 158 58 159 1 2 27 -7 57 -18 202 -79 574 -198 834
-267 481 -130 954 -210 1429 -243 222 -15 839 -6 1036 15 515 56 947 152 1383
308 93 33 172 56 176 51 4 -4 23 -48 41 -98 47 -129 143 -345 202 -454 l51
-94 8 -441 c15 -831 26 -1199 49 -1556 6 -91 20 -338 31 -550 25 -481 60
-1053 99 -1587 17 -227 30 -421 30 -432 0 -18 6 -21 45 -21 25 0 45 -5 45 -11
0 -5 4 -8 9 -5 5 4 16 3 24 0 13 -5 13 -11 -3 -47 -11 -23 -15 -43 -10 -45 6
-2 6 -11 0 -23 -10 -17 -7 -19 25 -19 32 0 35 -2 30 -23 -5 -19 1 -26 38 -44
l44 -21 12 -144 c30 -341 107 -955 119 -943 2 2 -3 75 -12 162 -27 266 -36
419 -36 646 0 156 3 217 11 217 9 0 127 -69 147 -85 2 -2 -4 -18 -13 -35 l-17
-33 26 5 c26 5 33 -2 19 -16 -5 -4 -8 -20 -9 -34 0 -15 -4 -35 -8 -44 -9 -20
38 -48 82 -48 28 0 30 -3 41 -62 42 -215 165 -676 268 -998 100 -317 272 -773
417 -1109 l36 -84 -27 18 c-123 78 -288 253 -398 422 -33 51 -63 92 -67 93
-20 1 43 -213 90 -310 95 -196 320 -549 501 -790 112 -149 110 -140 71 -242
l-21 -57 -58 62 c-229 248 -408 491 -572 780 -34 59 -63 106 -65 104 -9 -8
101 -327 158 -462 33 -77 118 -256 190 -398 l130 -258 -43 -90 c-23 -49 -48
-94 -54 -99 -8 -7 -52 89 -151 330 -93 228 -140 332 -142 315 -4 -29 64 -443
108 -660 l30 -147 -22 -18 c-24 -19 -59 -38 -123 -64 -23 -10 -56 -37 -77 -61
l-36 -45 -31 123 c-50 191 -52 192 -41 22 16 -229 21 -208 -65 -294 -41 -41
-75 -83 -75 -92 0 -32 80 -409 120 -564 48 -188 92 -319 137 -413 33 -67 37
-71 53 -57 23 21 25 20 131 -29 145 -67 209 -81 379 -81 168 1 247 18 389 87
l84 40 -7 387 c-27 1554 -40 2433 -56 3826 -17 1466 -30 3250 -30 4181 l0 880
-197 -4 c-145 -3 -231 0 -320 12 -411 54 -776 229 -1076 515 -52 49 -162 174
-137 154 10 -7 21 -9 30 -3 10 6 20 3 33 -11 11 -12 26 -18 34 -15 10 4 43
-20 97 -71 107 -103 149 -136 284 -227 142 -95 279 -162 453 -220 218 -74 422
-106 666 -106 l133 0 0 750 0 750 -50 0 c-41 0 -50 3 -51 18 0 9 -6 79 -13
155 -6 76 -10 140 -7 143 2 2 23 4 47 4 l42 0 8 68 c15 138 -35 1012 -64 1126
l-8 29 -91 -2 -92 -2 -5 33 c-3 18 -13 110 -21 203 -9 94 -18 180 -21 193 l-4
22 -4373 0 -4373 0 -18 -182z m1162 -2862 c-276 -246 -639 -412 -1014 -461
-141 -18 -144 -18 -144 0 0 18 31 35 65 35 54 0 234 42 364 86 215 71 494 228
636 357 l59 54 39 -16 38 -16 -43 -39z"/>
<path d="M21765 19983 c10 -26 127 -352 192 -535 l55 -158 134 0 134 0 0 -255
0 -255 100 0 100 0 0 255 0 256 158 -3 157 -3 -1 -252 -1 -253 99 0 98 0 0
103 c0 57 3 172 7 256 l6 151 156 -2 156 -3 -3 -115 c-1 -63 -6 -439 -12 -835
-5 -396 -12 -793 -15 -882 l-5 -163 47 0 c47 0 50 -2 134 -89 l87 -89 6 202
c3 110 10 480 16 821 6 341 13 693 17 783 l6 162 74 0 c66 0 73 -2 73 -20 0
-17 7 -20 50 -20 49 0 50 1 50 30 0 23 5 30 19 30 11 0 21 4 23 9 2 4 71 11
155 14 l151 5 6 -71 c4 -40 15 -247 26 -462 11 -214 24 -448 30 -520 5 -71 28
-474 50 -895 23 -421 43 -771 45 -777 3 -9 29 -13 83 -13 43 0 83 -5 88 -10
12 -12 24 632 24 1261 l0 368 -52 3 -53 3 -12 135 c-17 200 -21 180 38 180
l52 0 -6 338 c-5 289 -15 453 -41 707 -3 28 -10 77 -16 110 -5 33 -10 61 -10
63 0 1 -43 2 -95 2 -84 0 -95 2 -95 18 0 9 -9 107 -20 217 -11 110 -20 203
-20 208 0 4 -552 7 -1226 7 -1164 0 -1226 -1 -1219 -17z m1816 -703 c-8 -52
-7 -55 17 -52 21 3 23 0 17 -20 -4 -13 -9 -30 -11 -39 -3 -9 -14 -19 -24 -22
-15 -4 -20 -14 -20 -36 0 -30 -1 -31 -47 -31 l-48 0 2 87 c3 163 -5 144 61
141 55 -3 57 -4 53 -28z"/>
<path d="M25023 19898 c4 -57 10 -156 13 -220 l7 -118 -149 -1 c-82 -1 -141
-3 -132 -6 15 -4 18 -20 20 -111 l3 -106 58 -12 c32 -6 59 -13 61 -15 2 -2 9
-146 16 -319 16 -424 27 -646 42 -825 l13 -150 207 -3 208 -2 4 22 c6 28 26
234 26 264 0 13 -8 24 -20 27 -19 5 -20 14 -20 190 0 294 25 640 61 857 8 47
8 69 0 82 -6 10 -11 36 -11 58 0 37 2 40 28 40 l27 0 2 128 c2 70 5 171 9 225
l6 97 -243 0 -242 0 6 -102z"/>
<path d="M25810 19993 c0 -23 -42 -420 -45 -430 -3 -8 -35 -13 -97 -15 l-93
-3 -11 -75 c-7 -41 -15 -115 -18 -165 -3 -49 -11 -137 -16 -195 -6 -58 -13
-257 -17 -442 l-6 -338 52 0 c59 0 55 20 38 -180 l-12 -135 -58 -3 -59 -3 6
-47 c4 -26 8 -548 9 -1159 l2 -1113 78 0 c60 0 79 -3 83 -15 5 -11 22 -15 64
-15 42 0 61 -5 72 -17 8 -10 50 -79 92 -154 80 -144 85 -149 157 -149 l36 0 6
943 c4 518 10 1305 14 1750 l6 807 78 0 78 0 38 -41 c21 -22 42 -47 46 -55 5
-9 25 -14 57 -14 l50 0 0 275 0 275 155 0 155 0 0 -219 c0 -120 3 -233 6 -250
l7 -31 98 0 99 0 0 250 0 250 155 0 155 0 0 -250 0 -250 100 0 100 0 0 250 0
250 155 0 155 0 0 -250 0 -250 105 0 105 0 0 250 0 250 155 0 156 0 -3 -250
-3 -250 103 0 102 0 0 108 c0 59 3 171 7 250 l6 142 155 0 155 0 -7 -127 c-3
-71 -13 -630 -21 -1243 -9 -613 -25 -1704 -35 -2425 -11 -720 -20 -1365 -20
-1432 l0 -123 113 0 113 0 20 -72 19 -73 2 150 c6 356 35 1973 48 2690 8 429
14 828 15 888 l0 107 90 0 c87 0 91 -1 102 -25 8 -17 19 -25 37 -25 22 0 32
-10 59 -60 l33 -60 132 0 132 0 -2 428 c-2 235 -3 512 -3 616 l0 189 -280 -6
-280 -6 0 29 0 30 303 0 304 0 6 -307 c4 -170 7 -451 7 -625 0 -174 3 -323 6
-332 4 -12 20 -16 54 -16 l48 0 6 -72 c4 -40 31 -539 62 -1108 30 -569 61
-1141 69 -1270 8 -129 37 -658 65 -1176 35 -652 55 -965 66 -1022 l17 -82 47
0 46 0 0 2645 -1 2645 -52 0 c-47 0 -53 3 -57 23 -9 42 -25 280 -20 289 3 4
25 8 50 8 l44 0 0 253 c0 312 -11 492 -55 907 l-7 65 -96 0 -97 0 -22 210
c-12 116 -22 216 -22 223 -1 9 -413 12 -2026 12 -1114 0 -2025 -3 -2025 -7z
m470 -765 c0 -40 3 -90 6 -110 l7 -38 -46 0 c-46 0 -57 10 -57 51 0 12 -7 19
-19 19 -35 0 -44 64 -10 73 17 5 19 10 13 41 l-6 36 56 0 56 0 0 -72z m2803
32 c-5 -36 -4 -40 17 -40 18 0 21 -4 16 -22 -3 -13 -6 -29 -6 -35 0 -7 -9 -13
-20 -13 -14 0 -21 -9 -26 -35 -6 -34 -8 -35 -50 -35 l-44 0 0 43 c0 23 3 72 7
110 l6 67 52 0 53 0 -5 -40z"/>
<path d="M30672 19868 c3 -73 9 -172 12 -220 l6 -88 -228 -2 c-125 -1 -210 -3
-189 -5 36 -4 37 -6 37 -42 l0 -38 -50 -6 c-67 -8 -73 -13 -67 -56 2 -20 12
-88 20 -151 25 -178 37 -360 44 -662 l6 -278 52 0 52 0 7 73 c3 39 9 269 13
510 l6 438 41 -6 c111 -17 110 -16 118 -68 6 -41 22 -447 32 -812 2 -66 8
-147 14 -180 5 -33 13 -104 17 -157 l6 -97 -63 -4 c-35 -2 27 -4 138 -5 l201
-2 6 -1302 c4 -891 9 -1314 16 -1338 8 -24 11 -363 11 -1094 0 -583 2 -1057 5
-1054 3 2 12 879 20 1949 8 1069 18 2089 21 2267 l6 322 73 0 72 0 8 -582 c7
-594 -9 -4213 -21 -4635 -5 -164 -3 -261 6 -332 l13 -101 178 0 177 0 7 -70 7
-70 102 0 103 0 6 1028 c4 565 10 1723 14 2575 l6 1547 39 0 38 0 0 805 0 805
508 0 508 0 -4 280 -5 281 158 -3 158 -3 1 -135 c1 -74 3 -188 4 -252 l2 -118
101 0 100 0 -2 253 -2 252 157 3 156 3 0 -256 0 -255 106 0 105 0 -2 253 -2
252 158 3 158 3 -5 -256 -5 -255 103 0 104 0 0 255 0 256 156 -3 157 -3 -2
-252 -2 -253 99 0 99 0 7 77 c3 42 6 156 6 255 l0 179 158 -3 157 -3 -1 -25
c-13 -439 -48 -2466 -59 -3530 -3 -272 -12 -909 -21 -1415 l-14 -920 -53 -48
c-28 -26 -248 -222 -488 -434 l-437 -385 77 -68 c63 -57 78 -66 91 -56 22 18
1042 916 1063 936 20 18 15 -166 66 2730 11 575 19 1046 20 1048 1 1 149 2
330 2 l330 0 -4 708 c-2 389 -4 740 -4 780 l-1 72 -315 0 -315 0 0 25 0 25
338 0 339 0 6 -142 c4 -79 7 -249 7 -378 0 -129 3 -427 7 -662 l6 -428 96 0
97 0 22 -432 c50 -955 112 -2086 117 -2138 3 -30 21 -354 41 -720 19 -366 52
-999 74 -1408 22 -409 40 -746 40 -748 0 -2 28 -4 62 -4 l61 0 -6 543 c-16
1260 -29 4117 -22 4925 l6 872 -54 0 -54 0 -7 98 c-3 53 -9 125 -13 160 l-6
62 53 0 53 0 -6 333 c-4 182 -13 404 -21 492 -24 249 -25 266 -32 333 l-6 62
-94 0 c-67 0 -96 4 -99 13 -4 11 -45 396 -45 424 0 11 -472 13 -2485 13 -1956
0 -2485 -3 -2485 -12 0 -48 -43 -425 -49 -431 -5 -5 -70 -5 -145 -1 l-138 7 6
91 c3 50 8 148 12 219 l6 127 -244 0 -243 0 7 -132z m542 -410 c-31 -235 -53
-607 -54 -906 l0 -234 51 4 51 3 -6 -75 c-4 -41 -12 -113 -18 -159 l-12 -84
-84 6 c-47 4 -86 8 -88 10 -2 2 3 68 11 146 8 79 15 145 15 147 0 2 -10 4 -21
4 l-22 0 6 338 c4 185 13 400 21 477 8 77 15 148 16 158 0 13 8 17 35 17 l35
0 0 120 0 120 38 0 39 0 -13 -92z m1454 -266 l3 -113 -48 3 c-44 3 -48 5 -51
31 -2 18 -9 27 -21 27 -19 0 -31 26 -31 68 0 15 6 22 19 22 17 0 18 5 14 41
l-6 40 59 -3 59 -3 3 -113z m2799 73 c-7 -44 -6 -45 18 -39 19 5 24 3 21 -7
-2 -8 -7 -26 -10 -41 -4 -19 -13 -28 -26 -28 -14 0 -20 -8 -22 -32 -3 -31 -5
-33 -48 -36 l-45 -3 1 103 c1 57 2 109 3 116 1 8 20 12 57 12 l57 0 -6 -45z"/>
<path d="M37234 19963 c3 -21 8 -108 11 -193 3 -85 8 -167 11 -182 l6 -28
-229 -2 c-125 0 -213 -3 -195 -5 30 -4 32 -7 32 -44 0 -36 -2 -39 -29 -39 -15
0 -42 -5 -59 -11 -25 -9 -31 -16 -28 -32 3 -12 10 -44 15 -72 28 -130 61 -626
61 -917 l0 -118 53 0 54 0 7 113 c3 61 9 291 13 510 4 276 10 397 17 396 6 0
40 -6 76 -13 l65 -12 7 -69 c9 -102 28 -616 28 -782 0 -79 4 -143 9 -143 5 0
12 -44 15 -97 4 -54 9 -121 12 -150 l6 -52 -63 -4 c-35 -2 27 -4 139 -5 l202
-2 1 -4427 2 -4428 37 4300 c21 2365 38 4301 39 4303 0 1 35 2 76 2 l75 0 0
-1632 c0 -1445 -13 -3846 -23 -4295 l-4 -163 243 0 244 0 0 -1648 c0 -907 3
-1994 7 -2415 l6 -767 54 0 c50 0 53 1 53 25 0 21 -5 25 -30 25 l-30 0 0 2390
0 2390 34 0 34 0 6 633 c3 347 8 1294 11 2102 3 809 8 1750 11 2093 l7 622
190 0 190 0 -7 398 c-3 218 -9 569 -13 780 l-6 382 -179 0 -178 0 0 25 0 25
179 0 178 0 -4 275 -4 275 154 0 155 0 7 -250 7 -250 99 0 99 0 0 250 0 250
155 0 155 0 0 -250 0 -250 105 0 105 0 0 250 0 250 145 0 145 0 0 360 0 360
-984 0 -984 0 -6 -42 c-3 -24 -13 -122 -22 -218 -9 -96 -20 -179 -24 -183 -4
-5 -69 -5 -144 -1 l-138 7 7 146 c3 80 8 179 11 219 l6 72 -247 0 -247 0 6
-37z m556 -430 c0 -10 -5 -47 -10 -83 -5 -36 -12 -102 -15 -146 -3 -45 -10
-128 -16 -185 -5 -57 -13 -260 -16 -451 l-6 -348 52 0 52 0 -5 -42 c-3 -24
-11 -94 -17 -157 l-13 -114 -84 6 c-47 4 -87 8 -89 11 -5 4 12 198 23 264 4
29 3 32 -21 32 l-25 0 0 108 c0 177 20 578 35 727 8 77 15 143 15 148 0 4 16
7 35 7 l35 0 0 120 0 120 35 0 c27 0 35 -4 35 -17z m724 -270 c3 -21 6 -71 6
-110 l0 -73 -45 0 c-38 0 -45 3 -45 19 0 33 -11 51 -31 51 -10 0 -19 6 -19 13
0 6 -3 22 -6 35 -5 18 -2 22 16 22 20 0 22 4 18 40 l-4 40 52 0 51 0 7 -37z"/>
<path d="M8702 19461 c-18 -5 -36 -11 -39 -14 -3 -4 -2 -37 3 -74 l9 -68 55
-5 55 -5 12 -265 c20 -432 29 -600 35 -605 8 -8 18 399 18 727 0 182 -4 299
-10 303 -17 11 -104 14 -138 6z"/>
<path d="M9042 19459 l-33 -10 6 -57 c9 -95 25 -421 25 -521 0 -53 4 -91 8
-85 5 5 19 106 31 224 32 314 25 287 77 295 43 6 44 7 44 44 0 21 3 52 6 69 6
29 4 31 -32 41 -46 13 -87 13 -132 0z"/>
<path d="M9398 19458 c-26 -9 -28 -14 -28 -62 l0 -53 83 16 c98 19 107 24 107
60 0 25 -5 30 -44 40 -53 13 -81 13 -118 -1z"/>
<path d="M19012 19457 c-31 -7 -41 -14 -37 -24 3 -8 5 -23 5 -33 0 -19 5 -20
153 -50 l37 -8 0 53 c0 50 -2 54 -31 64 -37 13 -68 12 -127 -2z"/>
<path d="M19361 19457 c-33 -11 -33 -11 -27 -61 3 -28 6 -58 6 -68 0 -11 12
-18 41 -23 22 -4 42 -12 44 -18 3 -7 17 -127 33 -267 l29 -255 6 105 c4 58 12
206 18 330 5 124 12 230 14 236 4 13 -60 34 -101 33 -16 -1 -44 -6 -63 -12z"/>
<path d="M19713 19460 l-23 -9 1 -398 c1 -357 12 -769 17 -653 2 25 11 235 21
468 11 233 21 426 24 428 2 3 27 7 55 11 56 6 57 7 67 89 l6 51 -45 12 c-53
13 -92 13 -123 1z"/>
<path d="M24566 19458 c-26 -10 -28 -13 -23 -52 3 -22 13 -93 21 -156 24 -176
35 -357 43 -656 l6 -274 52 0 52 0 6 208 c4 114 10 366 14 561 6 337 5 355
-12 367 -22 16 -117 17 -159 2z"/>
<path d="M7605 19182 c-3 -21 -2 -49 4 -62 5 -14 10 -19 10 -12 1 8 21 12 65
12 70 0 76 5 76 66 l0 34 -74 0 -74 0 -7 -38z"/>
<path d="M20780 19171 l0 -49 75 -4 75 -3 0 53 0 52 -75 0 -75 0 0 -49z"/>
<path d="M21247 19194 c-2 -14 -2 -55 1 -90 l5 -64 98 0 99 0 0 90 0 90 -99 0
c-98 0 -99 0 -104 -26z"/>
<path d="M21765 19138 c4 -46 8 -83 9 -84 0 0 42 2 92 4 l91 4 6 52 c3 28 3
64 0 79 l-5 27 -100 0 -100 0 7 -82z"/>
<path d="M31867 18673 c-3 -5 -3 -356 1 -780 l5 -773 490 0 490 0 -7 398 c-3
218 -9 569 -13 780 l-6 382 -478 0 c-263 0 -480 -3 -482 -7z"/>
<path d="M23 18193 c3 -10 8 -40 12 -68 3 -27 8 -62 11 -76 5 -24 3 -26 -20
-22 l-26 5 0 -2240 0 -2240 45 -6 c25 -4 45 -10 45 -13 0 -4 -16 -35 -35 -70
-19 -35 -35 -68 -35 -73 0 -15 773 -691 781 -683 4 4 29 61 55 126 26 64 50
117 53 117 3 0 28 -56 55 -125 27 -69 52 -125 56 -125 6 0 704 612 759 665
l24 24 -37 71 c-21 39 -36 73 -34 75 2 2 35 9 73 15 38 6 71 12 72 14 5 4 75
4498 70 4502 -3 3 -42 -6 -88 -19 -46 -14 -85 -23 -87 -22 -3 3 14 123 23 163
l5 22 -890 0 c-844 0 -891 -1 -887 -17z m975 -1106 c90 -132 163 -269 211
-396 l39 -103 -29 -73 c-86 -225 -170 -597 -214 -955 -20 -168 -20 -180 6
-180 15 0 19 -5 15 -17 -2 -10 -10 -44 -16 -75 -9 -45 -15 -58 -30 -58 -16 0
-17 -5 -9 -41 14 -62 43 -111 93 -157 l45 -41 -49 -85 c-27 -47 -73 -138 -101
-203 -29 -65 -53 -119 -54 -121 -1 -1 -10 19 -20 45 -23 60 -115 253 -151 315
l-27 47 47 46 c74 71 123 195 78 195 -15 0 -22 13 -31 58 -7 31 -15 65 -17 75
-4 12 0 17 15 17 28 0 28 6 -18 281 -61 361 -135 684 -199 869 l-19 55 25 60
c58 144 177 365 274 508 32 47 42 56 53 47 8 -7 45 -58 83 -113z m-444 -1136
c78 -118 132 -270 180 -511 38 -190 40 -212 23 -252 -30 -72 -129 -158 -253
-221 l-51 -26 -61 83 c-34 46 -62 86 -62 90 0 3 22 6 48 6 120 0 233 41 262
95 12 23 12 30 -5 63 -11 20 -51 69 -90 108 -55 55 -82 75 -124 89 -67 22
-167 17 -234 -13 l-47 -21 0 82 c1 101 12 154 51 233 42 84 112 160 210 227
64 44 85 54 96 46 7 -7 33 -41 57 -78z m904 3 c143 -105 222 -258 222 -430 l0
-83 -47 21 c-70 32 -200 32 -265 0 -53 -26 -124 -94 -173 -167 -33 -49 -33
-50 -17 -80 28 -50 112 -85 221 -92 50 -3 90 -9 89 -12 -2 -4 -30 -44 -63 -88
l-59 -82 -80 42 c-95 50 -195 140 -221 197 -18 41 -18 45 -1 153 52 314 130
538 233 665 l35 43 31 -20 c18 -11 60 -41 95 -67z"/>
<path d="M839 17098 c-33 -51 -94 -160 -135 -241 l-74 -148 0 -134 c0 -124 3
-147 44 -312 52 -212 65 -278 120 -613 l41 -255 38 -3 37 -3 0 900 c0 496 -2
901 -5 901 -3 0 -33 -42 -66 -92z"/>
<path d="M860 15194 c-6 -14 -10 -30 -10 -35 0 -21 -34 -74 -78 -121 l-45 -48
81 -169 c45 -92 82 -173 82 -179 0 -6 5 -14 10 -17 7 -4 10 97 10 294 0 296 0
301 -20 301 -13 0 -24 -10 -30 -26z"/>
<path d="M358 15702 c-88 -75 -208 -215 -195 -228 3 -3 31 2 63 12 78 22 173
15 239 -19 58 -29 128 -100 180 -182 35 -55 36 -57 20 -82 -20 -30 -9 -43 36
-43 20 0 30 7 39 29 10 26 8 40 -20 113 -40 105 -95 205 -168 306 -52 73 -117
152 -124 152 -2 0 -33 -26 -70 -58z"/>
<path d="M1349 15716 c-102 -118 -199 -278 -249 -409 -33 -87 -36 -105 -17
-130 9 -13 21 -15 49 -11 l37 6 -15 30 c-15 29 -14 31 27 94 55 85 145 167
205 188 59 20 142 21 214 2 30 -8 56 -13 58 -12 7 8 -94 130 -161 193 -105
100 -105 99 -148 49z"/>
<path d="M5531 18193 c0 -10 6 -52 13 -94 l12 -77 -89 25 c-49 13 -90 23 -91
21 -2 -2 13 -1015 33 -2253 l36 -2249 72 -11 c40 -6 75 -14 78 -17 4 -3 -10
-39 -30 -78 l-37 -73 24 -23 c61 -59 741 -654 748 -654 4 0 31 59 60 130 29
72 54 130 55 130 2 0 27 -60 56 -134 46 -118 55 -133 69 -123 49 36 760 671
760 679 0 5 -16 39 -36 74 -20 36 -34 68 -30 71 3 4 36 11 73 17 l68 11 7 195
c4 107 12 483 18 835 45 2668 57 3461 54 3467 -2 4 -43 -4 -90 -17 l-87 -24 7
57 c4 31 9 74 13 95 l6 37 -887 0 c-837 0 -886 -1 -885 -17z m928 -1035 c108
-145 227 -365 271 -504 l23 -70 -31 -85 c-82 -221 -190 -721 -217 -999 -3 -36
-8 -77 -11 -92 -5 -24 -2 -28 19 -28 l24 0 -15 -75 c-13 -61 -20 -75 -35 -75
-16 0 -18 -5 -12 -32 13 -57 52 -122 99 -166 l47 -43 -19 -27 c-37 -53 -94
-163 -142 -274 l-49 -112 -17 39 c-43 105 -100 226 -140 297 l-45 79 43 39
c47 41 92 115 101 167 5 27 3 32 -16 35 -17 2 -23 14 -34 63 -16 81 -16 85 7
85 11 0 20 3 20 8 0 4 -18 115 -40 247 -63 388 -122 652 -191 862 l-30 91 61
139 c34 76 82 174 107 218 68 118 164 265 174 265 4 0 26 -24 48 -52z m464
-1170 c178 -120 266 -278 267 -477 0 -66 -2 -72 -17 -66 -162 71 -265 58 -375
-43 -33 -31 -75 -79 -94 -106 -31 -46 -32 -51 -18 -77 29 -56 144 -99 266 -99
26 0 48 -2 48 -5 0 -4 -113 -160 -125 -173 -5 -6 -108 49 -165 88 -73 50 -115
95 -139 150 -20 45 -20 46 0 160 25 146 73 340 105 428 50 132 143 278 170
268 8 -3 42 -24 77 -48z m-895 8 c96 -109 178 -341 231 -648 16 -94 17 -124 8
-155 -17 -57 -125 -158 -224 -211 l-82 -43 -65 88 -64 88 90 7 c106 9 183 40
217 87 l23 32 -42 64 c-120 184 -262 227 -462 140 -16 -6 -18 0 -18 56 1 144
49 273 142 374 52 58 180 155 204 155 6 0 26 -15 42 -34z"/>
<path d="M6359 17114 c-25 -38 -65 -104 -89 -148 l-43 -78 7 -447 c6 -361 11
-462 25 -531 20 -101 15 -106 95 106 l56 151 -2 508 -3 508 -46 -69z"/>
<path d="M5865 15698 c-88 -78 -194 -198 -195 -220 0 -4 19 0 43 9 52 19 169
22 220 4 21 -7 58 -28 83 -47 33 -25 54 -34 83 -34 33 0 40 4 45 26 5 20 -3
42 -38 97 -54 87 -152 211 -169 215 -7 1 -39 -21 -72 -50z"/>
<path d="M21244 18153 c4 -32 9 -75 13 -95 l5 -37 -88 24 c-48 13 -90 23 -91
21 -2 -2 3 -406 12 -897 9 -492 27 -1504 40 -2249 12 -745 23 -1356 24 -1356
1 -1 28 -5 62 -8 95 -11 93 -8 50 -94 l-38 -77 388 -342 c214 -188 390 -339
393 -335 4 6 64 154 98 242 9 23 15 12 63 -105 29 -71 57 -131 62 -132 6 -2
700 601 767 667 5 5 -10 42 -34 84 -23 42 -40 76 -38 77 2 0 37 6 78 12 l75
12 3 110 c3 138 24 1326 53 3052 12 733 20 1335 18 1338 -3 2 -45 -6 -93 -19
-77 -22 -86 -22 -82 -8 2 9 7 40 11 67 3 28 8 62 11 78 l6 27 -888 0 -887 0 7
-57z m950 -1030 c86 -130 175 -294 231 -425 l46 -107 -41 -134 c-45 -149 -97
-364 -136 -557 -24 -120 -84 -481 -84 -507 0 -7 9 -13 20 -13 24 0 24 5 4 -81
-13 -58 -19 -69 -36 -69 -18 0 -20 -4 -14 -32 11 -57 46 -115 96 -162 l50 -46
-30 -49 c-26 -42 -112 -218 -161 -330 l-15 -34 -24 59 c-31 78 -104 225 -147
297 l-35 58 41 35 c49 42 86 103 99 162 9 37 8 42 -8 42 -15 0 -21 13 -30 58
-6 31 -14 65 -16 75 -4 12 0 17 15 17 26 0 27 30 6 180 -58 407 -130 724 -215
946 l-31 81 27 74 c35 99 113 259 164 339 47 72 152 220 156 220 2 0 32 -44
68 -97z m-445 -1140 c80 -108 133 -245 184 -473 64 -289 61 -329 -32 -420 -49
-47 -167 -125 -222 -145 -11 -4 -34 19 -81 83 l-66 89 87 6 c47 3 106 13 131
22 50 18 110 70 110 96 0 22 -77 126 -125 168 -107 93 -212 104 -369 36 -18
-8 -18 -3 -14 109 5 109 7 121 42 191 20 41 60 100 88 131 50 54 192 163 214
164 6 0 30 -26 53 -57z m870 13 c96 -64 184 -160 225 -245 37 -77 63 -215 52
-275 l-6 -33 -68 24 c-83 31 -173 28 -241 -7 -55 -28 -138 -110 -175 -172 -31
-54 -27 -71 27 -111 44 -34 93 -48 192 -55 l85 -7 -65 -88 -65 -87 -63 31
c-139 70 -235 161 -252 239 -7 32 23 211 61 370 29 117 82 262 121 330 27 48
91 130 100 130 3 0 35 -20 72 -44z"/>
<path d="M26740 18202 c0 -5 5 -35 10 -68 6 -32 12 -71 15 -85 l4 -27 -86 24
c-48 13 -89 21 -92 19 -5 -6 56 -4088 65 -4341 l6 -162 74 -12 c41 -6 74 -14
74 -17 0 -3 -16 -36 -37 -75 -31 -59 -34 -71 -22 -83 73 -71 765 -673 770
-670 3 3 28 61 54 130 27 68 51 122 54 119 3 -3 29 -60 57 -127 27 -67 53
-121 57 -120 4 1 91 75 194 165 102 90 265 232 362 317 97 85 187 164 200 177
l24 22 -41 75 -40 75 79 12 79 12 0 58 c0 31 16 1044 35 2250 19 1206 34 2195
31 2197 -2 2 -43 -7 -91 -21 l-87 -24 6 36 c3 21 8 63 12 95 l7 57 -887 0
c-487 0 -886 -4 -886 -8z m968 -1100 c80 -123 172 -294 227 -425 l38 -88 -36
-117 c-76 -245 -142 -554 -197 -915 -11 -73 -22 -142 -25 -154 -4 -19 -1 -23
18 -23 l23 0 -15 -75 c-12 -60 -19 -75 -33 -75 -48 0 5 -134 78 -198 l44 -39
-62 -119 c-34 -65 -79 -158 -99 -207 l-36 -88 -52 120 c-29 65 -74 157 -101
204 l-48 85 52 54 c67 69 112 188 71 188 -8 0 -17 10 -20 23 -30 133 -30 127
-4 127 20 0 21 3 14 68 -38 376 -133 819 -229 1074 l-26 68 26 72 c54 150 146
319 256 473 29 41 56 75 59 75 4 0 39 -49 77 -108z m-399 -1212 c71 -135 123
-315 166 -570 15 -87 15 -98 0 -133 -31 -74 -127 -156 -261 -225 l-42 -21 -65
88 -65 88 87 6 c47 4 103 11 124 17 45 13 117 75 117 100 0 21 -73 122 -121
167 -64 59 -114 78 -209 78 -66 0 -96 -5 -132 -22 l-47 -22 -6 33 c-9 45 10
172 35 240 40 105 126 202 255 287 l60 39 32 -37 c18 -21 50 -72 72 -113z
m876 58 c142 -110 215 -257 215 -429 l0 -77 -67 25 c-162 60 -301 3 -417 -168
-35 -53 -35 -53 -18 -83 28 -50 111 -85 221 -94 l93 -7 -64 -87 -64 -86 -72
37 c-115 61 -187 124 -224 195 -24 48 -21 93 22 299 51 241 117 411 199 515
l41 52 43 -26 c23 -15 65 -44 92 -66z"/>
<path d="M27630 16291 l0 -903 23 6 c12 3 27 6 34 6 7 0 15 15 18 33 3 17 21
127 40 244 19 116 50 287 69 380 33 160 35 181 41 454 l7 286 -44 89 c-42 83
-137 244 -172 289 -14 18 -15 -68 -16 -884z"/>
<path d="M27631 14918 c1 -289 2 -301 17 -263 9 22 48 105 88 185 l71 145 -47
53 c-42 47 -59 76 -91 160 -5 12 -15 22 -24 22 -13 0 -15 -38 -14 -302z"/>
<path d="M27028 15648 c-114 -115 -172 -190 -132 -173 144 61 276 34 386 -79
49 -51 59 -56 97 -56 51 0 51 -4 -16 118 -43 80 -174 264 -207 291 -13 11 -32
-5 -128 -101z"/>
<path d="M28053 15697 c-76 -94 -129 -176 -184 -284 l-50 -98 42 -3 c34 -3 44
1 57 20 63 90 170 161 263 173 42 6 123 -8 183 -31 54 -21 -175 239 -241 275
-18 9 -27 2 -70 -52z"/>
<path d="M33125 18188 c5 -25 25 -149 25 -160 0 -4 -39 4 -87 17 -48 13 -89
23 -91 21 -5 -5 68 -4488 73 -4497 3 -4 37 -13 75 -19 39 -6 70 -16 70 -21 0
-4 -17 -38 -37 -75 -31 -57 -34 -68 -22 -78 9 -6 185 -161 391 -343 207 -183
379 -333 381 -333 2 0 26 56 53 125 27 69 52 125 55 125 4 0 28 -53 54 -117
26 -65 50 -122 54 -126 9 -9 781 667 781 683 0 5 -16 39 -36 75 -20 36 -35 68
-32 70 2 2 35 9 73 15 38 6 71 13 73 15 5 5 76 4495 70 4500 -2 3 -44 -6 -91
-19 l-88 -24 6 31 c2 18 9 59 15 91 5 33 10 61 10 63 0 2 -401 3 -890 3 l-890
0 5 -22z m994 -1129 c70 -113 164 -295 209 -404 l29 -70 -24 -70 c-65 -190
-147 -559 -203 -910 -36 -228 -36 -225 -9 -225 15 0 19 -5 15 -17 -2 -10 -10
-44 -17 -75 -9 -45 -16 -58 -31 -58 -45 0 4 -124 78 -195 l47 -46 -27 -47
c-37 -63 -128 -255 -151 -316 -18 -47 -19 -48 -29 -25 -46 112 -111 247 -149
312 l-46 77 45 42 c50 46 79 95 93 157 8 36 7 41 -8 41 -13 0 -21 14 -30 58
-7 31 -15 65 -17 75 -4 12 0 17 15 17 27 0 27 14 1 217 -45 352 -140 760 -219
946 l-19 44 39 103 c59 157 167 349 272 484 l31 39 20 -26 c12 -15 50 -72 85
-128z m-433 -1156 c68 -121 133 -340 170 -572 17 -106 17 -111 -1 -151 -26
-57 -126 -147 -220 -197 l-79 -41 -63 84 c-35 46 -63 85 -63 87 0 2 41 7 90
10 110 7 189 39 219 88 l19 31 -29 48 c-41 67 -120 144 -176 171 -66 33 -195
33 -265 1 l-48 -21 0 77 c0 195 91 351 277 477 l68 46 33 -38 c19 -21 49 -66
68 -100z m876 50 c159 -121 230 -275 220 -480 l-2 -32 -47 21 c-67 30 -167 35
-234 13 -42 -14 -69 -34 -124 -89 -39 -39 -79 -88 -90 -108 -17 -33 -17 -40
-5 -63 30 -55 142 -95 267 -95 l53 0 -67 -89 -67 -90 -50 26 c-130 66 -236
161 -257 232 -9 29 -6 60 11 156 55 308 123 501 222 633 l39 53 37 -22 c20
-13 63 -42 94 -66z"/>
<path d="M34010 16292 l0 -903 38 3 37 3 32 205 c38 236 95 533 129 668 21 82
24 116 24 289 l0 196 -46 91 c-55 109 -156 281 -189 322 l-24 29 -1 -903z"/>
<path d="M34010 14919 c0 -166 3 -300 6 -296 3 3 25 47 48 99 23 51 62 132 87
180 l46 87 -34 33 c-51 48 -75 86 -93 142 -13 38 -22 52 -38 54 l-22 3 0 -302z"/>
<path d="M33485 15723 c-62 -49 -183 -179 -209 -223 -19 -33 -19 -33 0 -26
148 58 260 38 369 -65 64 -60 138 -166 131 -186 -4 -9 5 -13 34 -13 26 0 40 5
40 13 -1 21 -74 189 -113 259 -33 60 -117 177 -179 251 l-24 29 -49 -39z"/>
<path d="M34458 15722 c-47 -49 -121 -151 -170 -236 -37 -62 -118 -247 -118
-268 0 -4 18 -8 40 -8 28 0 38 4 34 13 -6 17 47 96 114 168 74 81 144 114 237
113 38 -1 90 -9 114 -18 24 -9 46 -14 49 -11 14 14 -138 185 -224 252 l-41 32
-35 -37z"/>
<path d="M38975 18188 c9 -40 26 -160 23 -163 -2 -1 -41 8 -87 22 -46 13 -85
22 -88 20 -4 -5 66 -4499 70 -4504 1 -1 34 -7 72 -13 38 -6 71 -13 73 -15 2
-1 -13 -36 -33 -75 l-37 -73 24 -23 c54 -53 752 -664 758 -664 4 0 29 56 56
125 27 69 52 125 55 125 4 0 26 -48 49 -107 56 -140 58 -143 75 -137 13 5 15
140 14 1088 l0 1081 -35 -70 c-19 -38 -49 -105 -66 -148 -29 -71 -33 -76 -42
-55 -45 109 -111 246 -149 311 l-46 77 45 42 c50 46 79 95 93 157 8 36 7 41
-8 41 -13 0 -21 14 -30 58 -7 31 -15 65 -17 75 -4 12 0 17 15 17 27 0 27 14 1
217 -45 352 -140 760 -219 946 l-19 44 39 103 c21 57 62 146 90 199 52 98 178
289 204 311 12 10 25 -5 75 -82 34 -51 64 -95 66 -97 2 -2 4 264 4 592 l0 597
-515 0 -515 0 5 -22z m561 -2285 c68 -121 133 -340 170 -572 17 -106 17 -111
-1 -151 -26 -57 -126 -147 -220 -197 l-79 -41 -63 84 c-35 46 -63 85 -63 87 0
2 41 7 90 10 110 7 189 39 219 88 l19 31 -29 48 c-41 67 -120 144 -176 171
-66 33 -195 33 -265 1 l-48 -21 0 77 c0 195 91 351 277 477 l68 46 33 -38 c19
-21 49 -66 68 -100z"/>
<path d="M39355 15739 c-84 -62 -255 -252 -241 -266 2 -2 28 3 57 11 134 40
250 7 350 -101 31 -33 68 -82 83 -107 l27 -47 -20 -35 c-12 -19 -21 -37 -21
-40 0 -3 19 -4 42 -2 34 2 45 8 58 30 14 26 13 33 -9 95 -48 137 -156 319
-264 446 l-33 38 -29 -22z"/>
<path d="M39860 16292 l0 -903 38 3 37 3 26 155 c15 85 27 146 28 135 0 -11
-8 -76 -19 -145 -25 -157 -25 -160 1 -160 15 0 19 -5 15 -17 -2 -10 -10 -44
-17 -75 -9 -45 -16 -58 -31 -58 -12 0 -18 -7 -18 -22 0 -28 32 -100 59 -135
20 -25 20 -24 21 945 l0 969 -56 89 c-30 49 -62 96 -70 104 -12 12 -14 -105
-14 -888z"/>
<path d="M39860 14920 c0 -198 3 -299 10 -295 6 3 10 11 10 17 0 5 27 66 60
135 54 113 60 132 60 190 0 57 -4 69 -31 103 -17 21 -39 63 -49 92 -13 40 -22
54 -38 56 l-22 3 0 -301z"/>
<path d="M2 13083 l3 -137 295 -262 c346 -308 326 -298 427 -210 l62 54 -317
278 c-174 154 -349 309 -389 347 -40 37 -75 67 -78 67 -3 0 -4 -62 -3 -137z"/>
<path d="M27808 9888 c-3 -132 9 -991 20 -1386 4 -170 11 -272 17 -272 7 0 11
207 12 598 2 680 8 841 29 849 9 3 14 21 14 53 0 45 -2 48 -30 54 l-30 6 0
105 c0 86 -3 105 -15 105 -12 0 -15 -22 -17 -112z"/>
<path d="M18991 7084 c-30 -14 -93 -37 -140 -52 -79 -24 -100 -26 -269 -27
-200 0 -202 -4 -19 -41 103 -21 330 -15 435 11 l72 19 0 58 c0 67 -1 67 -79
32z"/>
<path d="M9472 7033 l3 -58 55 -12 c126 -26 360 -13 498 29 40 12 27 13 -140
13 -170 1 -189 3 -271 28 -49 15 -102 34 -118 43 l-30 15 3 -58z"/>
<path d="M10260 6999 c-41 -21 -119 -52 -172 -70 l-98 -32 0 -241 c-1 -132 -5
-434 -9 -671 l-9 -430 31 -26 c31 -26 31 -28 15 -46 -16 -18 -16 -20 -2 -35
18 -18 11 -38 -12 -38 -12 0 -12 -4 -2 -21 11 -18 10 -23 -3 -31 -14 -10 -14
-20 3 -104 31 -165 73 -528 62 -546 -7 -12 -188 3 -197 16 -21 28 13 427 49
584 16 69 16 73 -1 86 -21 15 -14 46 10 46 19 0 20 16 1 23 -19 8 -18 87 2 87
13 0 14 37 8 293 -3 160 -9 459 -12 664 l-7 371 -137 -5 c-84 -4 -168 -1 -219
6 -46 7 -85 10 -88 8 -2 -3 -8 -200 -13 -439 -5 -238 -11 -492 -13 -565 l-4
-132 81 -3 81 -3 6 -60 c4 -33 9 -88 13 -122 l6 -63 -44 0 -44 0 -4 -47 c-10
-116 16 -466 48 -645 l16 -88 83 0 c82 0 83 0 90 -27 3 -16 25 -85 47 -155
l41 -126 386 4 c212 3 400 7 417 10 l30 4 -38 168 c-192 844 -307 1711 -308
2315 0 70 -3 126 -7 125 -5 0 -42 -18 -83 -39z"/>
<path d="M18120 6898 c-1 -591 -104 -1378 -292 -2232 -41 -186 -48 -230 -37
-237 8 -5 120 -9 249 -9 129 0 325 -3 436 -7 l201 -6 7 29 c4 16 26 86 48 157
l41 127 82 0 82 0 16 103 c30 186 38 270 44 475 l6 202 -47 0 -47 0 7 83 c3
45 9 100 13 122 l6 40 79 3 79 3 -7 327 c-16 825 -17 834 -40 828 -95 -27
-211 -38 -347 -33 l-146 5 -7 -655 c-4 -389 -3 -660 2 -666 15 -19 11 -80 -6
-99 -14 -16 -13 -18 2 -18 24 0 33 -30 13 -45 -16 -11 -16 -19 3 -106 27 -135
40 -242 47 -421 l6 -158 -71 -2 c-40 -1 -86 -2 -104 -2 l-32 -1 3 70 c3 103
29 325 52 449 17 90 18 114 8 133 -7 13 -9 26 -6 30 4 3 0 15 -10 25 -15 17
-15 19 0 36 15 17 15 19 0 35 -16 16 -15 19 10 45 l27 29 -6 670 -7 671 -93
30 c-51 17 -130 49 -175 71 -46 23 -84 41 -86 41 -2 0 -3 -64 -3 -142z"/>
<path d="M30676 5743 l-49 -4 6 -113 5 -113 -66 -7 c-37 -3 -104 -6 -149 -6
l-83 0 0 -34 c0 -32 -3 -35 -37 -41 l-38 -6 0 -232 c0 -179 -4 -258 -19 -345
-10 -62 -17 -114 -15 -116 2 -2 25 -6 51 -8 l47 -5 16 71 c32 140 74 359 86
452 9 65 16 93 25 90 6 -2 32 -7 56 -11 l45 -7 7 -81 c10 -128 25 -396 26
-459 0 -55 1 -58 25 -58 14 0 25 -1 25 -2 0 -2 -15 -105 -34 -230 l-33 -228
290 0 289 0 -5 33 c-3 17 -16 123 -28 234 -19 166 -25 202 -39 206 -23 6 -40
145 -47 383 l-6 191 36 7 35 7 4 92 c2 50 2 94 0 97 -1 2 -34 6 -73 8 l-69 4
0 113 0 112 -61 7 c-62 6 -131 6 -223 -1z"/>
<path d="M37243 5743 l-51 -4 4 -62 c3 -34 6 -85 8 -113 l4 -51 -105 -7 c-59
-3 -135 -6 -170 -6 l-63 0 0 -36 c0 -26 -5 -37 -17 -40 -17 -5 -18 -24 -18
-227 0 -166 -5 -252 -19 -342 -10 -66 -19 -124 -20 -130 0 -5 22 -11 49 -13
l51 -3 27 108 c15 59 38 176 51 258 13 83 28 173 33 201 l8 50 55 -10 55 -11
12 -140 c6 -77 12 -194 12 -260 2 -160 7 -193 35 -197 l22 -3 -27 -194 c-15
-107 -29 -210 -32 -228 l-6 -33 290 0 291 0 -6 28 c-5 25 -27 227 -41 375 -5
55 -10 67 -24 67 -15 0 -20 16 -30 103 -19 151 -30 354 -24 419 5 55 7 56 39
63 l34 6 0 99 0 100 -70 0 -70 0 0 114 0 113 -61 7 c-61 6 -126 6 -226 -1z"/>
<path d="M3210 5427 l-45 -12 -1 -215 c-1 -134 -8 -260 -18 -335 -22 -168 -26
-155 40 -155 30 0 53 4 50 9 -6 9 26 182 44 236 13 40 56 301 65 392 l7 72
-39 10 c-45 13 -45 13 -103 -2z"/>
<path d="M3492 5430 c-18 -4 -36 -10 -39 -14 -3 -3 -1 -79 6 -168 6 -90 17
-248 23 -352 l12 -188 35 6 c20 3 44 6 54 6 15 0 17 13 17 133 0 121 21 414
36 514 5 34 3 43 -12 51 -29 15 -95 21 -132 12z"/>
<path d="M3771 5428 l-33 -9 5 -52 c14 -141 77 -495 107 -609 11 -38 11 -38
61 -38 l51 0 -6 36 c-24 126 -36 272 -36 452 0 153 -3 204 -12 207 -37 14
-107 20 -137 13z"/>
<path d="M8758 5419 c-26 -10 -28 -15 -28 -68 l0 -58 58 -9 57 -9 -2 -160 -2
-160 19 90 c25 117 55 363 46 372 -11 12 -120 13 -148 2z"/>
<path d="M9043 5420 c-26 -10 -27 -33 -14 -190 l8 -85 1 66 c2 75 -2 72 99 85
56 7 63 16 63 82 0 26 -5 35 -26 42 -31 12 -101 12 -131 0z"/>
<path d="M24642 5419 c-28 -8 -33 -14 -30 -37 3 -26 8 -28 88 -43 l85 -15 6
40 c5 31 3 44 -9 54 -18 14 -92 15 -140 1z"/>
<path d="M24921 5420 c-20 -9 -22 -15 -17 -41 3 -17 6 -42 6 -54 0 -21 7 -24
69 -35 78 -13 80 -15 82 -134 1 -35 7 4 14 94 7 86 8 159 3 165 -12 13 -128
17 -157 5z"/>
<path d="M25205 5417 c-20 -16 -20 -18 14 -237 35 -217 39 -223 40 -58 l1 147
55 11 c51 11 55 14 55 39 0 16 3 42 6 59 6 29 4 31 -32 41 -53 15 -116 14
-139 -2z"/>
</g>
</svg>
